<?xml version="1.0" encoding="UTF-8"?>
<!DOCTYPE svg PUBLIC "-//W3C//DTD SVG 1.1//EN" "http://www.w3.org/Graphics/SVG/1.1/DTD/svg11.dtd">
<!-- Creator: CorelDRAW 2019 (64-Bit Evaluation Version) -->
<svg xmlns="http://www.w3.org/2000/svg" xml:space="preserve" width="80mm" height="100mm" version="1.1" style="shape-rendering:geometricPrecision; text-rendering:geometricPrecision; image-rendering:optimizeQuality; fill-rule:evenodd; clip-rule:evenodd"
viewBox="0 0 8000 10000"
 xmlns:xlink="http://www.w3.org/1999/xlink"
 xmlns:xodm="http://www.corel.com/coreldraw/odm/2003">
 <defs>
  <style type="text/css">
   <![CDATA[
    .fil0 {fill:#3E2D44}
    .fil1 {fill:#ED3237}
    .fil2 {fill:#FFF212}
   ]]>
  </style>
 </defs>
 <g id="Layer_x0020_1">
  <metadata id="CorelCorpID_0Corel-Layer"/>
  <path class="fil0" d="M5078.84 7394.92l-134.56 116.69 1048.58 1538.59 146.5 -99.17 -1060.52 -1556.11z"/>
  <path class="fil0" d="M1436.57 5941.45l216.18 358.86c2916.11,2422.52 1516.55,2206.63 4414.23,98.64l242.34 -457.5c203.16,227.91 203.16,600.85 0,828.76l-2067 2318.95c-203.16,227.92 -535.58,227.92 -738.72,0l-2067.03 -2318.95c-203.14,-227.91 -203.14,-600.85 0,-828.76z"/>
  <path class="fil0" d="M3870.05 3926.25c1011.18,0 1824.39,1022.85 1824.39,1959.81 0,936.96 -1830.91,1971.04 -1830.91,1971.04 0,0 -1830.89,-1034.08 -1830.89,-1971.04 0,-936.96 826.22,-1959.81 1837.41,-1959.81z"/>
  <path class="fil0" d="M2674.46 4181.09l-900.33 -1321.06 -33.29 -7.48 -114.54 -135.6 -601.66 -297.01 -88.26 -955.41 854.2 436.98 31 624.78 118.19 192.04 -15.75 47.54 884.42 1297.69 -133.98 117.53z"/>
  <path class="fil1" d="M4148.61 4388.23c379.65,208.56 755.14,541.68 923.16,955.34 -0.78,-29.08 -2.8,-57.23 -6.35,-84.21 -105.09,-797.33 -564.57,-1059.19 -650.3,-1137.64 801.65,440.39 1585.04,1435.82 435.51,2573.01 -37.62,37.22 -64.78,58.82 -83.5,67.33 -54.65,65.86 -115.36,132.26 -183.02,199.19 -380.56,376.48 295.55,-822.78 214.79,-1435.37 -105.09,-797.34 -564.57,-1059.19 -650.29,-1137.65z"/>
  <path class="fil2" d="M4210.41 5315.9c245.43,134.82 488.16,350.16 596.79,617.58 -0.51,-18.8 -1.81,-37 -4.11,-54.44 -67.94,-515.44 -364.97,-684.71 -420.38,-735.43 518.23,284.68 1024.65,928.2 281.53,1663.34 -24.32,24.05 -41.88,38.01 -53.98,43.52 -35.33,42.56 -74.57,85.5 -118.31,128.76 -246.03,243.39 191.05,-531.88 138.85,-927.9 -67.94,-515.45 -364.97,-684.72 -420.39,-735.43z"/>
  <path class="fil1" d="M3604.6 4574.74c-379.66,208.56 -755.13,541.68 -923.15,955.33 0.77,-29.07 2.78,-57.23 6.35,-84.2 105.09,-797.34 564.57,-1059.19 650.28,-1137.63 -801.64,440.37 -1585.04,1435.81 -435.49,2573 37.62,37.21 64.78,58.82 83.49,67.32 54.66,65.86 115.37,132.27 183.02,199.2 380.57,376.48 -295.54,-822.78 -214.79,-1435.38 105.1,-797.33 564.58,-1059.19 650.29,-1137.64z"/>
  <path class="fil2" d="M3506.56 5438.41c-245.43,134.83 -488.16,350.18 -596.77,617.58 0.49,-18.8 1.79,-37 4.1,-54.44 67.93,-515.44 364.97,-684.71 420.39,-735.43 -518.23,284.68 -1024.66,928.2 -281.54,1663.34 24.31,24.06 41.87,38.02 53.97,43.53 35.33,42.57 74.58,85.49 118.32,128.77 246.02,243.37 -191.06,-531.9 -138.86,-927.92 67.94,-515.44 364.98,-684.71 420.39,-735.43z"/>
  <path class="fil0" d="M5774.77 2825.56c268.33,-91.72 400.33,-107.72 452.63,-107.64 -28.91,-9.6 -75.52,-36.24 -118.24,-102.7 -96.98,-150.86 -506.96,-82.32 -307.56,-153.67 701.16,-250.9 -24.53,-127.46 95.64,-240.17 527.75,-494.93 414.29,-233.39 -51.85,-419.72 522.32,-439.72 -114.37,-108.05 -352.74,-360.9 529.96,-949.02 -505.54,-363.75 -238.73,-782.49 244.13,-383.15 -592.34,139.36 -599.54,-51.93 -10.16,-269.99 414.12,-337.45 166.77,-375.05 -406.1,-61.72 -1041.53,748.29 -1234.24,1017.2 -248.58,346.85 -392.82,208.49 -476.87,641.77 -88.81,457.6 -277.17,440.7 -275.04,668.58 1.42,149.97 -76.57,52.59 -58.13,181.95 199.62,115.59 -41.8,112.07 114.29,142.36 159.15,30.88 -184.3,546.51 551.21,198.69l45.22 -36.14c-9.44,145.54 122.12,445.93 212.67,732.51 58.8,-7.02 118.4,-10.66 178.64,-10.66 508.02,0 966.09,258.2 1296.15,633.95 62.39,-83.77 75.63,-188.15 16.2,-313.19 -144.22,-16.34 -463.5,-436.08 -512.89,-519.35 -223.02,-375.86 -685.32,-554.75 -317.04,-466.09 286.28,68.93 1358.82,-81.3 1430.56,-108.86 669.1,-256.86 -382.77,-43.43 -17.11,-168.45z"/>
 </g>
</svg>
